<?xml version="1.0" standalone="no"?>
<!DOCTYPE svg PUBLIC "-//W3C//DTD SVG 20010904//EN"
 "http://www.w3.org/TR/2001/REC-SVG-20010904/DTD/svg10.dtd">
<svg version="1.0" xmlns="http://www.w3.org/2000/svg"
 width="225.000000pt" height="225.000000pt" viewBox="0 0 225.000000 225.000000"
 preserveAspectRatio="xMidYMid meet">

<g transform="translate(0.000000,225.000000) scale(0.100000,-0.100000)"
fill="#000000" stroke="none">
<path d="M1038 1634 c-169 -41 -318 -175 -373 -337 l-19 -57 29 -30 29 -30 15
63 c33 127 119 230 247 294 68 33 86 38 169 41 113 5 184 -13 271 -69 104 -67
172 -163 198 -279 20 -87 20 -136 0 -213 -31 -122 -93 -208 -197 -275 -88 -57
-159 -75 -272 -70 -83 3 -101 8 -166 41 -104 52 -122 69 -109 102 15 39 12
132 -5 165 -8 16 -59 67 -113 114 -55 46 -111 98 -125 115 l-26 31 -11 -42
c-7 -23 -10 -80 -8 -127 4 -103 33 -174 99 -246 63 -68 86 -77 49 -18 -36 56
-86 182 -94 238 -5 30 0 22 23 -37 55 -144 91 -206 153 -264 243 -224 621
-177 800 100 76 118 101 280 63 420 -71 267 -357 436 -627 370z"/>
<path d="M1305 1512 c-5 -6 -34 -17 -64 -26 -61 -18 -91 -40 -91 -68 0 -25 15
-23 69 9 38 22 43 23 28 6 -10 -11 -35 -28 -57 -38 -54 -24 -50 -34 7 -24 50
10 86 36 110 82 16 31 15 75 -2 59z"/>
<path d="M944 1468 c-25 -49 -21 -127 10 -176 14 -23 35 -46 46 -52 l21 -11
-20 39 c-11 22 -23 60 -26 84 -3 23 -3 36 1 28 3 -8 15 -39 26 -67 11 -29 24
-53 28 -53 9 0 30 46 30 67 0 9 -18 44 -40 79 -22 35 -40 68 -40 73 0 25 -21
18 -36 -11z"/>
<path d="M1440 1370 c-42 -22 -132 -45 -210 -55 -45 -6 -62 -14 -91 -44 -32
-32 -69 -115 -56 -127 13 -13 217 71 232 96 3 5 11 10 17 10 42 0 -113 -96
-211 -131 -57 -20 -61 -23 -40 -32 13 -5 54 -7 91 -5 135 7 253 97 293 224 24
75 19 87 -25 64z"/>
<path d="M811 1333 c-20 -43 -25 -137 -11 -188 23 -81 93 -155 168 -179 21 -7
19 -3 -14 41 -39 51 -94 158 -94 183 0 8 14 -13 31 -46 31 -62 84 -134 98
-134 14 0 34 87 27 115 -4 15 -42 64 -85 110 -44 46 -82 93 -86 104 -9 28 -19
26 -34 -6z"/>
<path d="M1535 1155 c-45 -28 -189 -77 -280 -95 -88 -17 -93 -19 -131 -52 -41
-36 -62 -74 -80 -143 -19 -70 -18 -78 9 -70 103 32 262 111 314 158 13 11 25
18 29 15 9 -9 -124 -111 -196 -151 -36 -20 -87 -44 -115 -55 -99 -38 -93 -34
-65 -42 42 -13 162 -11 217 4 165 44 305 186 342 347 12 52 14 109 4 109 -5 0
-26 -12 -48 -25z"/>
</g>
</svg>
