<?xml version="1.0" standalone="no"?>
<!DOCTYPE svg PUBLIC "-//W3C//DTD SVG 20010904//EN"
 "http://www.w3.org/TR/2001/REC-SVG-20010904/DTD/svg10.dtd">
<svg version="1.0" xmlns="http://www.w3.org/2000/svg"
 width="225.000000pt" height="225.000000pt" viewBox="0 0 225.000000 225.000000"
 preserveAspectRatio="xMidYMid meet">

<g transform="translate(0.000000,225.000000) scale(0.100000,-0.100000)"
fill="#000000" stroke="none">
<path d="M1101 2004 c-29 -37 -28 -95 2 -130 l23 -27 22 28 c15 18 22 42 22
69 0 43 -4 53 -31 74 -15 11 -20 9 -38 -14z"/>
<path d="M980 1878 c1 -38 44 -78 84 -78 19 0 21 38 3 61 -31 40 -87 51 -87
17z"/>
<path d="M1220 1893 c-40 -16 -69 -93 -34 -93 40 0 83 40 84 78 0 22 -17 27
-50 15z"/>
<path d="M540 1611 c0 -264 0 -269 20 -264 19 5 20 14 20 249 l0 244 179 0
c174 0 179 1 174 20 -5 19 -14 20 -199 20 l-194 0 0 -269z"/>
<path d="M1317 1860 c-5 -19 0 -20 174 -20 l179 0 0 -244 c0 -235 1 -244 20
-249 20 -5 20 0 20 264 l0 269 -194 0 c-185 0 -194 -1 -199 -20z"/>
<path d="M690 1535 l0 -195 33 0 c45 0 52 7 72 74 45 158 176 256 339 256 64
0 82 -5 144 -36 103 -51 172 -141 190 -246 7 -42 8 -43 50 -46 l42 -3 0 195 0
196 -435 0 -435 0 0 -195z"/>
<path d="M690 1280 c-85 -18 -225 -83 -215 -100 3 -4 29 5 57 20 123 66 293
87 438 54 76 -17 80 -17 81 -7 2 28 -267 52 -361 33z"/>
<path d="M1295 1280 c-219 -44 -414 -216 -485 -429 -11 -35 -19 -66 -16 -68
10 -11 24 8 30 41 24 128 176 310 316 378 186 92 393 91 573 -1 37 -19 57 -25
57 -17 0 12 -73 52 -135 74 -86 31 -245 41 -340 22z"/>
<path d="M683 1206 c-72 -18 -183 -74 -183 -92 0 -9 3 -14 8 -12 4 2 34 17 67
34 110 57 217 74 340 54 70 -11 98 3 39 19 -52 14 -206 12 -271 -3z"/>
<path d="M1285 1209 c-131 -31 -289 -149 -359 -269 -28 -48 -40 -78 -71 -177
-3 -7 2 -13 10 -13 8 0 20 20 29 50 41 138 146 266 271 332 167 87 353 87 516
1 30 -15 57 -29 62 -31 4 -2 7 3 7 12 0 18 -104 71 -180 91 -61 16 -222 18
-285 4z"/>
<path d="M695 1139 c-50 -17 -165 -72 -165 -80 0 -20 23 -17 77 10 82 41 126
51 219 51 60 0 85 4 94 15 11 13 0 15 -91 14 -57 0 -117 -5 -134 -10z"/>
<path d="M1259 1126 c-154 -54 -273 -175 -319 -325 -16 -50 -18 -66 -8 -72 9
-6 20 13 38 64 44 124 126 219 237 275 80 41 155 55 255 50 71 -4 97 -10 162
-41 89 -42 90 -42 94 -24 3 17 -103 71 -168 86 -82 19 -218 13 -291 -13z"/>
<path d="M1374 1079 c-143 -13 -284 -112 -344 -241 -16 -35 -32 -78 -36 -95
-6 -29 -4 -33 15 -33 14 0 21 6 21 19 0 30 37 109 75 161 66 90 204 160 314
160 60 0 154 -25 208 -55 35 -19 44 -21 53 -10 9 11 6 17 -12 29 -81 53 -182
75 -294 65z"/>
<path d="M693 1065 c-23 -7 -63 -25 -88 -40 -37 -21 -44 -29 -35 -41 10 -11
19 -10 54 10 53 31 138 56 192 56 28 0 44 5 48 15 4 12 -6 15 -62 14 -37 0
-86 -6 -109 -14z"/>
<path d="M750 1006 c-30 -6 -76 -23 -103 -36 -42 -21 -46 -26 -33 -39 13 -12
22 -11 74 12 33 15 71 27 85 27 16 0 31 8 37 19 18 35 20 35 -60 17z"/>
<path d="M1360 1010 c-135 -23 -261 -139 -298 -272 -10 -36 -9 -38 12 -38 18
0 25 9 35 42 28 92 106 173 201 209 78 30 197 24 263 -13 43 -24 47 -25 61 -9
15 16 12 20 -39 45 -52 25 -138 47 -174 45 -9 -1 -36 -5 -61 -9z"/>
<path d="M1365 941 c-100 -27 -172 -83 -211 -166 -30 -63 -30 -75 -1 -75 19 0
26 8 35 38 18 61 91 128 158 148 65 19 135 14 184 -11 30 -15 33 -15 51 1 20
18 19 19 -24 40 -48 25 -145 37 -192 25z"/>
<path d="M720 927 c-19 -7 -43 -18 -53 -23 -17 -10 -17 -11 1 -27 17 -16 22
-16 48 -2 16 8 34 15 40 15 6 0 16 11 22 25 10 21 9 25 -6 25 -9 -1 -33 -7
-52 -13z"/>
<path d="M540 807 l0 -97 118 0 117 0 -33 20 c-24 15 -50 20 -97 20 l-65 0 0
58 c0 46 -4 63 -20 77 -20 18 -20 17 -20 -78z"/>
<path d="M1688 883 c-13 -14 -18 -36 -18 -76 l0 -57 -65 0 c-46 0 -76 -6 -102
-20 l-38 -20 118 0 c89 0 119 3 123 13 3 8 4 51 2 96 -3 80 -4 82 -20 64z"/>
<path d="M1357 866 c-57 -21 -102 -56 -131 -100 -34 -53 -34 -68 2 -60 15 4
29 11 30 16 9 22 57 70 84 84 33 17 102 23 134 11 15 -5 28 -2 45 12 l24 19
-30 12 c-49 19 -117 21 -158 6z"/>
<path d="M732 857 c-17 -10 -20 -15 -10 -25 18 -18 25 -15 30 13 3 14 5 25 4
25 0 -1 -11 -6 -24 -13z"/>
<path d="M1367 796 c-43 -16 -64 -31 -78 -59 -10 -17 -8 -18 23 -12 56 12 161
67 146 76 -18 12 -47 10 -91 -5z"/>
<path d="M698 532 l-48 -3 0 -155 c0 -147 1 -154 20 -154 18 0 20 7 20 65 l0
65 35 0 c28 0 35 4 35 20 0 16 -7 20 -35 20 l-35 0 0 56 0 56 45 -4 c41 -3 45
-1 45 19 0 15 -6 21 -17 20 -10 -1 -39 -3 -65 -5z"/>
<path d="M1148 533 c-16 -4 -18 -20 -18 -159 l0 -154 25 0 c24 0 25 2 25 65 0
56 3 65 18 65 30 0 42 -22 42 -77 0 -46 3 -53 20 -53 18 0 20 7 20 58 0 35 -6
66 -15 79 -13 19 -13 22 0 27 19 7 21 105 3 128 -13 16 -88 29 -120 21z m80
-45 c16 -16 16 -70 0 -86 -7 -7 -20 -12 -30 -12 -15 0 -18 9 -18 55 0 46 3 55
18 55 10 0 23 -5 30 -12z"/>
<path d="M1424 532 l-32 -3 1 -155 c0 -143 1 -154 18 -154 17 0 19 10 20 113
0 128 11 121 30 -20 12 -86 15 -93 35 -93 25 0 25 1 46 140 l13 85 3 -112 c2
-105 4 -113 22 -113 19 0 20 8 20 155 l0 155 -33 0 -33 0 -13 -105 c-7 -58
-16 -107 -21 -110 -4 -2 -13 37 -20 88 -19 132 -19 133 -56 129z"/>
<path d="M906 503 c-3 -16 -12 -77 -21 -138 -9 -60 -19 -118 -21 -127 -4 -13
0 -18 15 -18 13 0 21 9 26 30 6 26 11 30 40 30 29 0 34 -4 37 -27 2 -20 9 -29
26 -31 12 -2 22 -1 22 2 0 9 -40 260 -45 284 -4 17 -12 22 -39 22 -30 0 -35
-4 -40 -27z m63 -175 c1 -13 -7 -18 -25 -18 l-27 0 7 63 c13 112 19 120 32 42
7 -38 13 -78 13 -87z"/>
</g>
</svg>
